<?xml version="1.0" encoding="iso-8859-1"?>
<!-- Generator: Adobe Illustrator 16.0.0, SVG Export Plug-In . SVG Version: 6.00 Build 0)  -->
<!DOCTYPE svg PUBLIC "-//W3C//DTD SVG 1.1//EN" "http://www.w3.org/Graphics/SVG/1.1/DTD/svg11.dtd">
<svg version="1.1" id="Capa_1" xmlns="http://www.w3.org/2000/svg" xmlns:xlink="http://www.w3.org/1999/xlink" x="0px" y="0px"
	 width="213.255px" height="213.255px" viewBox="0 0 213.255 213.255" style="enable-background:new 0 0 213.255 213.255;"
	 xml:space="preserve">
<g>
	<path d="M176.055,178.961c0.396-3.499,0.916-9.168,1.141-16.545l-39.241-5.189l1.59-11.987l37.705,4.978
		c-0.143-6.928-0.633-14.683-1.62-23.017l-38.881-5.137l1.584-11.993l35.488,4.688c-1.549-8.831-3.7-18.096-6.697-27.521
		l-42.475-5.621l1.59-11.993l36.281,4.794C152.01,47.945,134.408,21.179,105.221,0l-9.392,19.813l-20.741-7.61l4.747,27.109
		C65.985,48.2,40.651,65.793,28.717,82.639c-13.11,18.507,6.165,42.209,27.255,38.698c18.542-3.098,42.215-18.466,42.215-18.466
		s-2.01,60.077-38.036,76.09H35.686v34.294h153.131v-34.294H176.055L176.055,178.961z M89.374,79.134
		c-5.337,0-9.676-4.333-9.676-9.679c0-5.344,4.339-9.673,9.676-9.673c5.35,0,9.682,4.33,9.682,9.673
		C99.056,74.801,94.723,79.134,89.374,79.134z"/>
</g>
<g>
</g>
<g>
</g>
<g>
</g>
<g>
</g>
<g>
</g>
<g>
</g>
<g>
</g>
<g>
</g>
<g>
</g>
<g>
</g>
<g>
</g>
<g>
</g>
<g>
</g>
<g>
</g>
<g>
</g>
</svg>
