<?xml version="1.0" encoding="iso-8859-1"?>
<!-- Generator: Adobe Illustrator 19.0.0, SVG Export Plug-In . SVG Version: 6.00 Build 0)  -->
<svg version="1.1" id="Layer_1" xmlns="http://www.w3.org/2000/svg" xmlns:xlink="http://www.w3.org/1999/xlink" x="0px" y="0px"
	 viewBox="0 0 512 512" style="enable-background:new 0 0 512 512;" xml:space="preserve">
<circle style="fill:#F2CF61;" cx="256" cy="240" r="240"/>
<path style="fill:#E6E6E6;" d="M280,200c-12,0-24,0-24,0s-12,0-24,0c0,36,0,180-48,264c36,0,72,0,72,0s36,0,72,0
	C280,380,280,236,280,200z"/>
<path style="fill:#CCCCCC;" d="M280,200c-5.788,0-11.564,0-16,0c0,36,0,180,48,264c5.256,0,10.616,0,16,0C280,380,280,236,280,200z"
	/>
<path style="fill:#CC584C;" d="M292,208c0,4.4-3.6,8-8,8h-56c-4.4,0-8-3.6-8-8l0,0c0-4.4,3.6-8,8-8h56C288.4,200,292,203.6,292,208
	L292,208z"/>
<g>
	<path style="fill:#263740;" d="M300,224c0,4.4-3.6,8-8,8h-72c-4.4,0-8-3.6-8-8l0,0c0-4.4,3.6-8,8-8h72C296.4,216,300,219.6,300,224
		L300,224z"/>
	<path style="fill:#263740;" d="M340,472c0,4.4-3.6,8-8,8H180c-4.4,0-8-3.6-8-8l0,0c0-4.4,3.6-8,8-8h152
		C336.4,464,340,467.6,340,472L340,472z"/>
</g>
<path style="fill:#1E2C33;" d="M332,464h-16c4.4,0,8,3.6,8,8s-3.6,8-8,8h16c4.4,0,8-3.6,8-8S336.4,464,332,464z"/>
<path style="fill:#CC584C;" d="M340,488c0,4.4-3.6,8-8,8H180c-4.4,0-8-3.6-8-8l0,0c0-4.4,3.6-8,8-8h152C336.4,480,340,483.6,340,488
	L340,488z"/>
<path style="fill:#263740;" d="M356,504c0,4.4-3.6,8-8,8H164c-4.4,0-8-3.6-8-8l0,0c0-4.4,3.6-8,8-8h184C352.4,496,356,499.6,356,504
	L356,504z"/>
<path style="fill:#1E2C33;" d="M348,496h-16c4.4,0,8,3.6,8,8s-3.6,8-8,8h16c4.4,0,8-3.6,8-8S352.4,496,348,496z"/>
<path style="fill:#B34D43;" d="M332,480h-16c4.4,0,8,3.6,8,8s-3.6,8-8,8h16c4.4,0,8-3.6,8-8S336.4,480,332,480z"/>
<path style="fill:#1E2C33;" d="M292,216h-16c4.4,0,8,3.6,8,8s-3.6,8-8,8h16c4.4,0,8-3.6,8-8S296.4,216,292,216z"/>
<path style="fill:#B34D43;" d="M284,200h-16c4.4,0,8,3.6,8,8s-3.6,8-8,8h16c4.4,0,8-3.6,8-8S288.4,200,284,200z"/>
<g>
	<rect x="252" y="48" style="fill:#263740;" width="8" height="76"/>
	<rect x="220" y="84" style="fill:#263740;" width="72" height="8"/>
	<rect x="240" y="60" style="fill:#263740;" width="32" height="8"/>
</g>
<polygon style="fill:#E6E6E6;" points="296,112 216,112 232,200 280,200 "/>
<polygon style="fill:#CCCCCC;" points="280,112 264,200 280,200 296,112 "/>
<g>
</g>
<g>
</g>
<g>
</g>
<g>
</g>
<g>
</g>
<g>
</g>
<g>
</g>
<g>
</g>
<g>
</g>
<g>
</g>
<g>
</g>
<g>
</g>
<g>
</g>
<g>
</g>
<g>
</g>
</svg>
