<?xml version="1.0" encoding="iso-8859-1"?>
<!-- Generator: Adobe Illustrator 19.0.0, SVG Export Plug-In . SVG Version: 6.00 Build 0)  -->
<svg version="1.1" id="Layer_1" xmlns="http://www.w3.org/2000/svg" xmlns:xlink="http://www.w3.org/1999/xlink" x="0px" y="0px"
	 viewBox="0 0 512 512" style="enable-background:new 0 0 512 512;" xml:space="preserve">
<circle style="fill:#E16B5A;" cx="256" cy="240" r="240"/>
<path style="fill:#E6E6E6;" d="M280,200c-12,0-24,0-24,0s-12,0-24,0c0,36,0,180-48,264c36,0,72,0,72,0s36,0,72,0
	C280,380,280,236,280,200z"/>
<path style="fill:#CCCCCC;" d="M280,200c-5.788,0-11.564,0-16,0c0,36,0,180,48,264c5.256,0,10.616,0,16,0C280,380,280,236,280,200z"
	/>
<path style="fill:#263740;" d="M340,472c0,4.416-3.584,8-8,8H180c-4.416,0-8-3.584-8-8l0,0c0-4.416,3.584-8,8-8h152
	C336.416,464,340,467.584,340,472L340,472z"/>
<path style="fill:#1E2C33;" d="M332,464h-16c4.4,0,8,3.6,8,8s-3.6,8-8,8h16c4.4,0,8-3.6,8-8S336.4,464,332,464z"/>
<path style="fill:#CC584C;" d="M340,488c0,4.416-3.584,8-8,8H180c-4.416,0-8-3.584-8-8l0,0c0-4.416,3.584-8,8-8h152
	C336.416,480,340,483.584,340,488L340,488z"/>
<path style="fill:#263740;" d="M356,504c0,4.416-3.584,8-8,8H164c-4.416,0-8-3.584-8-8l0,0c0-4.416,3.584-8,8-8h184
	C352.416,496,356,499.584,356,504L356,504z"/>
<path style="fill:#1E2C33;" d="M348,496h-16c4.4,0,8,3.6,8,8s-3.6,8-8,8h16c4.4,0,8-3.6,8-8S352.4,496,348,496z"/>
<path style="fill:#B34D43;" d="M332,480h-16c4.4,0,8,3.6,8,8s-3.6,8-8,8h16c4.4,0,8-3.6,8-8S336.4,480,332,480z"/>
<g>
	<rect x="252" y="28" style="fill:#E6E6E6;" width="8" height="76"/>
	<rect x="220" y="64" style="fill:#E6E6E6;" width="72" height="8"/>
	<rect x="240" y="40" style="fill:#E6E6E6;" width="32" height="8"/>
</g>
<polygon style="fill:#CC584C;" points="296,229.668 216,229.668 224,197.668 288,197.668 "/>
<polygon style="fill:#BF5347;" points="288,197.668 272,197.668 280,229.668 296,229.668 "/>
<path style="fill:#263740;" d="M312,173.668c0,30.944-25.048,32-56,32c-30.936,0-56-1.056-56-32c0-30.94,20-60,56-80
	C292,113.668,312,142.724,312,173.668z"/>
<path style="fill:#1E2C33;" d="M256,93.668c-2.772,1.54-5.416,3.152-8,4.8c30.928,19.708,48,46.644,48,75.2
	c0,28.22-20.852,31.572-48,31.944c2.62,0.036,5.276,0.056,8,0.056c30.952,0,56-1.056,56-32S292,113.668,256,93.668z"/>
<g>
</g>
<g>
</g>
<g>
</g>
<g>
</g>
<g>
</g>
<g>
</g>
<g>
</g>
<g>
</g>
<g>
</g>
<g>
</g>
<g>
</g>
<g>
</g>
<g>
</g>
<g>
</g>
<g>
</g>
</svg>
